 <svg version="1.0" xmlns="http://www.w3.org/2000/svg" width="700.000000pt" height="400.000000pt" viewBox="0 0 700.000000 400.000000" preserveAspectRatio="xMidYMid meet">
<metadata>
Created by potrace 1.12, written by Peter Selinger 2001-2015
</metadata>
<g transform="translate(0.000000,400.000000) scale(0.100000,-0.100000)" fill="#000000" stroke="none">
<path d="M13 3993 c9 -2 23 -2 30 0 6 3 -1 5 -18 5 -17 0 -22 -2 -12 -5z"></path>
<path d="M3075 3960 c-115 -38 -182 -46 -197 -25 -4 5 -111 -15 -270 -53 -145
-34 -353 -82 -463 -107 -110 -25 -214 -50 -230 -55 -17 -5 -53 -12 -80 -16
-28 -3 -59 -9 -70 -14 -11 -4 -69 -20 -130 -34 -194 -46 -459 -107 -493 -113
-17 -3 -32 -9 -32 -13 0 -9 70 -36 118 -45 35 -7 46 9 12 18 -23 6 -26 25 -5
33 8 3 32 -8 54 -25 44 -35 54 -37 130 -16 57 15 522 125 1107 260 177 41 328
77 335 80 8 3 36 1 62 -4 43 -8 63 -4 190 36 78 25 146 48 150 53 5 4 4 23 0
41 -13 47 -41 47 -188 -1z m155 -5 c0 -8 -9 -19 -19 -24 -26 -14 -38 16 -14
34 20 15 33 11 33 -10z m-352 -70 c10 -9 -11 -23 -40 -28 -31 -4 -549 -121
-593 -134 -11 -3 -17 -2 -13 2 4 5 3 14 -2 20 -8 9 16 18 97 34 60 12 196 44
303 71 168 42 232 51 248 35z m-756 -186 c4 -3 -105 -32 -244 -64 -139 -32
-258 -60 -264 -62 -7 -2 -11 6 -11 20 0 22 7 25 116 50 345 76 386 83 390 73
2 -6 8 -14 13 -17z"></path>
<path d="M4420 3990 c0 -5 5 -10 10 -10 6 0 10 5 10 10 0 6 -4 10 -10 10 -5 0
-10 -4 -10 -10z"></path>
<path d="M4970 3981 c0 -24 49 -35 69 -16 12 11 17 11 37 -1 14 -10 24 -11 28
-5 4 5 -3 15 -14 21 -11 6 -20 8 -20 4 0 -3 -7 -1 -15 6 -12 10 -18 10 -30 0
-12 -10 -19 -10 -27 -2 -17 17 -28 15 -28 -7z"></path>
<path d="M5116 3985 c4 -8 15 -15 25 -15 12 0 16 5 13 15 -4 8 -15 15 -25 15
-12 0 -16 -5 -13 -15z"></path>
<path d="M5215 3978 c-6 -13 -19 -24 -30 -26 -11 -2 -27 -10 -35 -18 -9 -7
-35 -16 -58 -20 -23 -4 -45 -10 -48 -15 -2 -4 -11 -6 -18 -3 -7 3 -19 -3 -27
-12 -11 -14 -11 -18 6 -31 29 -21 124 -9 249 31 94 31 246 100 246 111 0 3
-62 5 -138 5 -133 0 -138 -1 -147 -22z"></path>
<path d="M5873 3941 l19 -59 -38 -61 c-27 -42 -48 -64 -69 -70 -85 -28 -946
-241 -954 -237 -5 3 -7 15 -4 26 6 22 -14 53 -29 44 -5 -3 -16 0 -24 7 -12 9
-14 24 -8 66 6 48 5 53 -13 53 -11 0 -31 8 -44 19 -13 10 -34 21 -45 25 -19 6
-23 1 -35 -40 -10 -33 -27 -59 -61 -89 l-47 -42 10 -69 c5 -37 15 -72 22 -76
17 -11 57 -10 118 3 42 9 53 9 60 -2 7 -11 11 -12 17 -1 5 7 16 10 25 6 10 -3
17 -1 17 6 0 7 8 9 20 5 12 -4 20 -2 20 5 0 7 8 9 20 5 11 -3 20 -2 20 3 0 10
56 27 125 37 62 10 899 217 905 224 3 3 16 7 30 8 35 2 1001 242 1020 254 27
16 -210 4 -273 -14 -42 -12 -96 -17 -195 -17 -149 0 -138 3 -237 -70 -40 -30
-73 -43 -169 -67 -76 -19 -119 -26 -121 -19 -2 6 -6 30 -8 54 -5 41 -4 43 41
70 l47 27 -53 3 c-39 2 -56 8 -65 23 -7 11 -23 19 -38 19 l-26 0 20 -59z
m-1265 -414 c4 -21 -25 -34 -40 -19 -8 8 -8 16 2 27 16 19 34 15 38 -8z"></path>
<path d="M6070 3991 c0 -17 32 -21 154 -21 92 0 127 4 142 15 17 13 2 14 -138
15 -87 0 -158 -4 -158 -9z"></path>
<path d="M4430 3945 c0 -8 5 -15 10 -15 6 0 10 7 10 15 0 8 -4 15 -10 15 -5 0
-10 -7 -10 -15z"></path>
<path d="M4440 3890 c0 -5 5 -10 10 -10 6 0 10 5 10 10 0 6 -4 10 -10 10 -5 0
-10 -4 -10 -10z"></path>
<path d="M30 3860 c0 -5 14 -10 30 -10 17 0 30 5 30 10 0 6 -13 10 -30 10 -16
0 -30 -4 -30 -10z"></path>
<path d="M180 3850 c0 -5 9 -10 20 -10 11 0 20 5 20 10 0 6 -9 10 -20 10 -11
0 -20 -4 -20 -10z"></path>
<path d="M1318 3842 c-27 -8 -48 -20 -48 -25 0 -5 6 -7 14 -4 8 3 32 11 55 18
23 7 41 16 41 21 0 10 -5 10 -62 -10z"></path>
<path d="M360 3820 c-8 -15 -21 -20 -50 -20 -22 0 -40 -5 -40 -10 0 -7 24 -10
63 -8 39 2 62 7 62 15 0 6 3 15 7 19 4 4 5 11 2 15 -9 16 -33 10 -44 -11z"></path>
<path d="M0 3810 c0 -5 7 -10 15 -10 8 0 15 5 15 10 0 6 -7 10 -15 10 -8 0
-15 -4 -15 -10z"></path>
<path d="M3248 3803 c-6 -7 -22 -13 -37 -14 -41 -1 -102 -41 -123 -79 -10 -19
-24 -40 -32 -45 -7 -6 -24 -30 -37 -55 -21 -40 -24 -58 -24 -160 0 -96 3 -122
21 -158 24 -50 34 -45 34 17 0 32 6 51 22 68 17 18 21 34 19 66 -2 37 2 46 34
77 l36 35 92 -3 c50 -2 96 -6 101 -10 5 -3 48 -6 95 -7 47 -1 98 -7 113 -13
48 -20 70 -72 84 -202 6 -54 31 -113 45 -105 12 8 12 55 0 55 -6 0 -7 49 -4
123 5 111 4 127 -16 171 -11 27 -21 54 -21 60 0 26 -89 106 -161 144 -66 35
-86 41 -153 44 -54 2 -81 -1 -88 -9z"></path>
<path d="M70 3800 c0 -6 28 -10 65 -10 37 0 65 4 65 10 0 6 -28 10 -65 10 -37
0 -65 -4 -65 -10z"></path>
<path d="M1110 3800 c0 -5 5 -10 10 -10 6 0 10 5 10 10 0 6 -4 10 -10 10 -5 0
-10 -4 -10 -10z"></path>
<path d="M840 3785 c-7 -8 -21 -15 -31 -15 -11 0 -19 -4 -19 -10 0 -5 21 -10
46 -10 38 0 45 3 40 16 -3 9 -6 20 -6 25 0 14 -16 11 -30 -6z"></path>
<path d="M1510 3786 c0 -8 5 -18 10 -21 6 -3 10 1 10 9 0 8 -4 18 -10 21 -5 3
-10 -1 -10 -9z"></path>
<path d="M440 3780 c0 -5 18 -10 40 -10 22 0 40 5 40 10 0 6 -18 10 -40 10
-22 0 -40 -4 -40 -10z"></path>
<path d="M580 3770 c0 -6 27 -10 60 -10 33 0 60 4 60 10 0 6 -27 10 -60 10
-33 0 -60 -4 -60 -10z"></path>
<path d="M1229 3764 c-10 -13 -10 -17 2 -25 17 -11 39 -12 39 -1 0 4 -7 15
-14 25 -12 16 -15 16 -27 1z"></path>
<path d="M970 3750 c0 -6 35 -10 85 -10 50 0 85 4 85 10 0 6 -35 10 -85 10
-50 0 -85 -4 -85 -10z"></path>
<path d="M1735 3750 c3 -5 10 -10 16 -10 5 0 9 5 9 10 0 6 -7 10 -16 10 -8 0
-12 -4 -9 -10z"></path>
<path d="M1370 3730 c0 -5 11 -10 25 -10 14 0 25 5 25 10 0 6 -11 10 -25 10
-14 0 -25 -4 -25 -10z"></path>
<path d="M1536 3732 c-7 -12 4 -52 15 -52 5 0 9 9 9 20 0 11 0 23 1 27 1 11
-18 15 -25 5z"></path>
<path d="M1580 3710 c0 -5 14 -10 30 -10 17 0 30 5 30 10 0 6 -13 10 -30 10
-16 0 -30 -4 -30 -10z"></path>
<path d="M6930 3528 c-73 -25 -142 -93 -182 -178 -34 -74 -60 -178 -56 -229 3
-32 0 -35 -32 -44 -43 -11 -68 -32 -72 -61 -2 -15 -9 -20 -27 -18 -16 1 -22
-2 -18 -12 8 -21 -13 -38 -30 -24 -11 9 -12 7 -7 -7 5 -12 4 -16 -4 -11 -6 3
-14 27 -18 51 -3 25 -10 47 -14 50 -10 6 -40 -39 -40 -60 0 -8 -7 -15 -15 -15
-9 0 -15 9 -15 25 0 19 4 23 16 18 14 -5 16 -2 10 20 -4 18 -2 27 6 27 6 0 3
6 -7 14 -10 7 -16 20 -12 29 3 8 -3 23 -14 33 -10 9 -19 26 -19 37 0 13 -5 17
-16 13 -9 -3 -18 -6 -20 -6 -3 0 0 -9 6 -21 9 -15 8 -24 -1 -35 -9 -11 -9 -17
1 -29 10 -13 9 -15 -9 -15 -28 0 -27 -18 3 -30 24 -9 28 -16 40 -72 8 -34 -9
-71 -36 -83 -12 -6 -22 -20 -23 -32 -3 -40 -32 -70 -79 -82 -33 -8 -46 -16
-46 -29 0 -16 -8 -18 -50 -16 -52 2 -59 -3 -37 -25 10 -10 8 -15 -8 -24 -11
-7 -29 -14 -40 -17 -11 -3 -20 -10 -20 -15 -1 -22 -21 -43 -40 -42 -14 1 -21
-5 -23 -20 -4 -26 -13 -28 -43 -10 -17 9 -23 9 -26 0 -3 -9 -10 -10 -23 -3
-11 6 -25 9 -32 8 -8 -2 -14 9 -16 28 -3 26 -7 31 -23 27 -25 -7 -24 2 6 41
28 37 31 64 10 92 -14 18 -15 18 -39 -11 -14 -16 -28 -38 -32 -48 -10 -32 -29
-12 -26 26 4 39 -5 46 -27 25 -11 -11 -13 -9 -8 9 7 31 -36 71 -58 53 -12 -10
-18 -10 -30 0 -20 17 -20 44 1 36 26 -10 37 4 18 25 -20 23 -54 25 -54 4 0
-19 -26 -20 -33 -1 -3 8 1 20 9 26 24 21 17 41 -11 34 -21 -5 -25 -3 -25 14 0
19 7 21 73 24 56 2 72 6 72 18 0 12 -15 15 -75 15 l-75 0 -7 40 c-4 22 -7 76
-7 121 -1 131 -10 174 -38 187 -21 9 -28 7 -53 -19 -28 -28 -214 -286 -275
-381 -16 -26 -37 -50 -45 -54 -64 -33 -90 -39 -154 -39 -49 0 -81 -5 -103 -17
-45 -26 -105 -82 -101 -95 2 -6 25 8 51 31 67 57 80 63 145 60 53 -3 132 16
189 43 13 6 37 36 54 67 35 63 270 391 281 391 3 0 9 -44 12 -97 3 -54 11
-152 17 -218 l11 -120 117 -115 c64 -63 148 -154 186 -202 73 -92 67 -88 153
-92 11 -1 16 5 14 16 -1 9 2 19 8 23 10 6 14 -12 11 -46 -1 -11 46 -36 171
-89 95 -40 243 -103 328 -140 85 -38 220 -96 299 -130 79 -33 161 -70 182 -81
l39 -19 0 750 c0 412 -3 749 -7 749 -5 -1 -33 -10 -63 -21z m-30 -378 c0 -5
-8 -10 -18 -10 -10 0 -24 -6 -31 -12 -11 -11 -12 -10 -6 0 5 11 32 26 53 31 1
1 2 -3 2 -9z m-497 -45 c-3 -9 -8 -14 -10 -11 -3 3 -2 9 2 15 9 16 15 13 8 -4z
m448 -10 c5 4 6 -7 3 -24 -5 -25 -3 -30 17 -33 31 -4 36 -26 7 -37 -23 -9 -22
-10 10 -21 17 -7 32 -15 32 -19 0 -21 -107 -91 -139 -91 -23 0 -51 31 -51 57
0 13 9 31 20 40 11 10 20 22 20 27 0 17 65 117 68 106 2 -5 8 -8 13 -5z m103
-31 c20 -8 21 -44 2 -44 -10 0 -12 7 -8 22 3 14 2 19 -6 14 -7 -4 -12 -2 -12
3 0 13 3 13 24 5z m-564 -182 c0 -9 -25 -33 -49 -47 -9 -5 -5 6 8 23 21 31 41
42 41 24z m70 -27 c19 -10 43 -13 67 -9 42 6 95 -9 91 -27 -2 -7 8 -15 22 -19
19 -5 11 -8 -35 -14 -137 -17 -186 -18 -202 -5 -8 8 -28 12 -44 11 -38 -4 -37
4 9 44 42 38 52 40 92 19z m-632 -141 c-5 -26 -38 -31 -38 -7 0 24 21 46 33
34 5 -5 7 -17 5 -27z"></path>
<path d="M3143 3325 c-33 -14 -41 -29 -24 -39 5 -3 22 1 37 9 15 8 30 12 33 9
7 -7 -40 -43 -56 -44 -25 0 -13 -20 12 -20 36 0 74 -20 68 -36 -3 -10 3 -14
18 -14 44 0 64 11 82 41 21 38 22 73 1 93 -20 20 -126 21 -171 1z m127 -79 c0
-11 -19 -15 -25 -6 -3 5 1 10 9 10 9 0 16 -2 16 -4z"></path>
<path d="M3455 3322 c-13 -9 -35 -58 -35 -77 0 -17 47 -51 84 -61 25 -6 27 -4
22 13 -6 17 -1 22 28 27 38 7 39 22 7 59 -14 17 -13 17 13 8 36 -14 46 -14 46
2 0 8 -11 19 -25 25 -29 13 -124 16 -140 4z m83 -80 c2 -7 -3 -12 -12 -12 -9
0 -16 7 -16 16 0 17 22 14 28 -4z"></path>
<path d="M2976 3293 c-19 -20 19 -153 44 -153 11 0 25 89 15 98 -4 4 -10 1
-12 -5 -3 -7 -12 -13 -20 -13 -12 0 -14 8 -10 35 5 33 -3 52 -17 38z"></path>
<path d="M6620 3250 c0 -5 5 -10 10 -10 6 0 10 5 10 10 0 6 -4 10 -10 10 -5 0
-10 -4 -10 -10z"></path>
<path d="M6485 3233 c-60 -18 -81 -33 -64 -43 6 -4 23 -1 38 6 14 8 33 14 41
14 16 1 50 23 50 34 0 8 -5 7 -65 -11z"></path>
<path d="M6670 3220 c0 -5 5 -10 10 -10 6 0 10 5 10 10 0 6 -4 10 -10 10 -5 0
-10 -4 -10 -10z"></path>
<path d="M6580 3206 c-6 -8 -18 -12 -27 -9 -10 4 -14 2 -12 -6 5 -15 5 -15 47
0 17 6 32 15 32 20 0 14 -26 11 -40 -5z"></path>
<path d="M6628 3192 c-16 -9 -28 -20 -28 -24 0 -11 52 -10 70 2 13 8 13 11 0
24 -13 13 -18 13 -42 -2z"></path>
<path d="M6280 3170 c0 -5 11 -10 25 -10 14 0 25 5 25 10 0 6 -11 10 -25 10
-14 0 -25 -4 -25 -10z"></path>
<path d="M6450 3170 c0 -5 4 -10 9 -10 6 0 13 5 16 10 3 6 -1 10 -9 10 -9 0
-16 -4 -16 -10z"></path>
<path d="M6498 3166 c-21 -15 -37 -96 -19 -96 6 0 27 16 46 35 34 33 35 35 18
55 -20 23 -22 24 -45 6z m22 -26 c0 -5 -4 -10 -10 -10 -5 0 -10 5 -10 10 0 6
5 10 10 10 6 0 10 -4 10 -10z"></path>
<path d="M6410 3150 c0 -5 5 -10 10 -10 6 0 10 5 10 10 0 6 -4 10 -10 10 -5 0
-10 -4 -10 -10z"></path>
<path d="M3280 3124 c-11 -27 -6 -44 12 -44 5 0 30 -13 54 -29 24 -17 46 -26
49 -20 4 5 15 9 26 9 10 0 19 4 19 9 0 5 3 16 6 25 8 21 -14 21 -37 0 -16 -14
-20 -14 -48 0 -16 9 -37 16 -47 16 -12 0 -15 7 -12 30 6 37 -9 39 -22 4z"></path>
<path d="M3458 3120 c16 -28 32 -39 32 -22 0 12 -30 52 -40 52 -5 0 -1 -13 8
-30z"></path>
<path d="M6042 3129 c-30 -9 -52 -33 -40 -44 8 -8 77 16 100 35 l23 19 -25 0
c-14 -1 -40 -5 -58 -10z"></path>
<path d="M6240 3120 c0 -5 7 -10 15 -10 8 0 15 5 15 10 0 6 -7 10 -15 10 -8 0
-15 -4 -15 -10z"></path>
<path d="M6290 3114 c0 -17 22 -14 28 4 2 7 -3 12 -12 12 -9 0 -16 -7 -16 -16z"></path>
<path d="M6153 3105 c-10 -7 -21 -13 -25 -14 -5 0 -8 -3 -8 -6 0 -3 0 -8 0
-11 0 -4 7 -1 15 6 13 11 18 10 28 -4 11 -15 22 -17 60 -11 54 8 58 15 20 31
-48 20 -71 22 -90 9z"></path>
<path d="M6571 3107 c-14 -18 -19 -52 -6 -52 6 -1 15 14 21 32 12 34 5 43 -15
20z"></path>
<path d="M3031 3074 c0 -11 3 -14 6 -6 3 7 2 16 -1 19 -3 4 -6 -2 -5 -13z"></path>
<path d="M6080 3065 c-10 -12 -9 -15 4 -15 9 0 16 -3 16 -7 0 -11 -58 -43 -77
-43 -9 0 -13 -3 -10 -6 4 -4 -2 -19 -13 -34 -22 -31 -27 -64 -8 -58 6 2 18 23
26 46 11 35 16 40 30 31 14 -9 24 -4 53 23 l37 34 -23 22 c-20 19 -24 20 -35
7z"></path>
<path d="M6520 3038 c0 -21 4 -38 9 -38 19 0 21 18 6 46 l-15 29 0 -37z"></path>
<path d="M5900 3049 c0 -5 5 -7 10 -4 6 3 10 8 10 11 0 2 -4 4 -10 4 -5 0 -10
-5 -10 -11z"></path>
<path d="M5992 3051 c4 -13 18 -16 19 -4 0 4 -5 9 -11 12 -7 2 -11 -2 -8 -8z"></path>
<path d="M6257 3044 c-13 -13 -7 -24 14 -24 11 0 19 5 17 12 -5 14 -22 21 -31
12z"></path>
<path d="M2952 3028 c-17 -17 -15 -55 3 -62 9 -3 15 -19 15 -41 0 -33 2 -35
20 -25 25 13 28 85 4 118 -17 25 -25 27 -42 10z"></path>
<path d="M5730 3032 c0 -5 11 -17 25 -26 22 -15 27 -15 40 -3 12 13 11 15 -8
20 -12 2 -30 8 -39 12 -10 4 -18 3 -18 -3z"></path>
<path d="M2550 3020 c0 -5 5 -10 10 -10 6 0 10 5 10 10 0 6 -4 10 -10 10 -5 0
-10 -4 -10 -10z"></path>
<path d="M5896 2999 c-14 -17 -26 -43 -26 -58 0 -33 23 -67 38 -57 17 10 15
37 -5 51 -9 7 -14 19 -10 29 9 23 37 20 37 -5 0 -39 25 -13 28 29 3 36 0 42
-17 42 -10 0 -31 -14 -45 -31z"></path>
<path d="M5985 3010 c-3 -5 -1 -10 4 -10 6 0 11 5 11 10 0 6 -2 10 -4 10 -3 0
-8 -4 -11 -10z"></path>
<path d="M6140 3005 c-9 -11 -10 -19 -3 -26 6 -6 13 -1 21 16 13 28 2 34 -18
10z"></path>
<path d="M2480 3000 c0 -5 5 -10 10 -10 6 0 10 5 10 10 0 6 -4 10 -10 10 -5 0
-10 -4 -10 -10z"></path>
<path d="M2440 2990 c0 -5 5 -10 10 -10 6 0 10 5 10 10 0 6 -4 10 -10 10 -5 0
-10 -4 -10 -10z"></path>
<path d="M3303 2981 c-18 -9 -33 -19 -33 -23 0 -3 22 -9 49 -13 57 -8 181 3
181 16 0 16 -72 39 -119 38 -25 -1 -61 -9 -78 -18z m107 -21 c0 -5 -13 -10
-30 -10 -16 0 -30 5 -30 10 0 6 14 10 30 10 17 0 30 -4 30 -10z"></path>
<path d="M6333 2967 c-2 -30 -1 -31 9 -9 7 14 8 26 2 32 -6 6 -10 -2 -11 -23z"></path>
<path d="M1000 2987 c0 -12 64 -124 98 -170 55 -76 50 -46 -8 45 -56 87 -90
135 -90 125z"></path>
<path d="M5824 2966 l6 -24 -38 21 c-55 30 -73 20 -58 -33 21 -82 96 -102 96
-26 0 17 7 40 15 50 20 27 19 36 -6 36 -17 0 -20 -4 -15 -24z m-24 -41 c10
-13 11 -18 1 -28 -10 -9 -15 -8 -27 7 -8 11 -14 23 -14 28 0 14 27 9 40 -7z"></path>
<path d="M5665 2970 c-4 -6 4 -22 18 -36 30 -30 45 -16 21 21 -18 27 -29 31
-39 15z"></path>
<path d="M6192 2964 c-33 -23 -31 -80 4 -96 57 -26 132 52 93 98 -15 19 -69
18 -97 -2z m63 -39 c0 -22 -31 -33 -48 -16 -7 7 -6 15 3 26 17 21 45 15 45
-10z"></path>
<path d="M2320 2960 c0 -5 5 -10 10 -10 6 0 10 5 10 10 0 6 -4 10 -10 10 -5 0
-10 -4 -10 -10z"></path>
<path d="M6096 2943 c7 -31 12 -38 18 -32 7 7 -6 59 -15 59 -5 0 -6 -12 -3
-27z"></path>
<path d="M3594 2950 c-29 -12 -99 -126 -113 -185 -16 -67 -33 -91 -84 -117
-56 -29 -136 -29 -201 0 -28 13 -81 54 -127 99 l-79 77 27 28 c33 34 15 37
-24 4 l-27 -24 28 -40 c43 -62 140 -151 190 -173 89 -39 176 -35 246 13 48 33
69 67 76 123 5 37 19 67 52 114 44 62 46 63 84 58 21 -3 52 -17 69 -31 17 -14
43 -26 57 -26 27 0 145 -51 172 -74 8 -8 27 -16 42 -20 14 -3 39 -19 55 -35
16 -15 43 -36 61 -45 17 -9 39 -28 48 -41 9 -14 24 -25 33 -25 21 0 97 -36
106 -50 4 -6 15 -5 30 2 17 8 32 8 52 0 24 -8 52 -10 101 -4 6 1 12 6 12 11 0
8 -64 18 -155 25 -48 4 -133 43 -195 91 -25 19 -56 43 -70 54 -48 36 -216 120
-266 132 -27 7 -65 22 -84 35 -42 26 -87 36 -116 24z"></path>
<path d="M5596 2953 c-11 -11 -6 -23 9 -23 8 0 15 4 15 9 0 13 -16 22 -24 14z"></path>
<path d="M6034 2925 c-4 -11 -13 -27 -21 -36 -12 -15 -11 -19 13 -38 21 -17
29 -19 36 -9 12 20 9 62 -6 84 -14 19 -15 19 -22 -1z"></path>
<path d="M2754 2915 c-10 -8 -26 -15 -35 -15 -9 0 -24 -9 -33 -19 -14 -15 -15
-24 -7 -39 6 -11 15 -22 20 -24 5 -1 3 -11 -4 -22 -9 -11 -43 -25 -89 -36
l-74 -18 -49 24 c-26 14 -53 36 -60 49 -17 32 -47 40 -78 19 -24 -16 -28 -24
-29 -73 -1 -21 -10 -26 -76 -46 -124 -36 -130 -37 -130 -20 0 27 -47 65 -79
65 -43 0 -69 -40 -54 -81 13 -35 13 -35 -77 -60 -89 -24 -89 -24 -101 11 -12
33 -26 39 -36 14 -8 -22 14 -82 47 -129 73 -101 96 -177 80 -269 -9 -58 -8
-62 24 -120 46 -83 96 -175 113 -208 14 -26 14 -26 50 -11 86 35 163 53 222
51 69 -3 70 -5 71 -103 1 -69 13 -161 33 -255 8 -36 14 -91 14 -122 l0 -57
-36 -3 c-31 -3 -45 5 -106 56 -82 70 -85 73 -85 109 0 15 -5 27 -11 27 -8 0
-10 -13 -5 -37 3 -21 6 -44 6 -50 0 -7 8 -13 18 -13 16 0 19 -9 20 -59 3 -110
54 -235 210 -515 85 -152 170 -371 188 -484 5 -32 13 -46 32 -56 22 -12 30
-10 66 10 50 29 75 30 123 4 45 -24 85 -26 118 -4 28 19 48 10 40 -17 -7 -22
-2 -23 49 -5 21 7 49 27 63 45 14 17 43 41 65 52 l39 20 51 -37 c39 -27 56
-34 67 -27 9 5 35 43 57 84 67 119 79 129 200 176 60 23 117 44 128 45 10 2
28 21 40 43 11 22 22 42 23 44 2 2 11 -3 21 -12 26 -24 42 -21 42 6 0 13 5 28
12 35 18 18 5 23 -30 10 -27 -11 -34 -10 -49 5 -16 16 -16 19 -1 50 9 17 22
52 30 77 8 29 21 49 37 56 13 7 25 23 27 36 1 13 16 58 32 100 l30 78 -23 18
c-12 10 -41 26 -63 36 -40 18 -41 18 -77 -4 -21 -13 -64 -25 -106 -31 -76 -9
-275 -65 -349 -97 -80 -35 -219 -143 -307 -239 -47 -51 -88 -93 -92 -93 -3 0
-19 26 -34 58 -16 31 -35 68 -42 82 -17 34 -8 90 15 90 9 0 25 8 34 19 16 18
16 19 -8 23 -14 3 -23 2 -21 -2 6 -10 -20 -20 -55 -20 -22 0 -29 6 -34 26 -8
32 -10 30 37 38 31 6 37 4 37 -11 1 -17 1 -17 11 0 6 11 22 17 44 17 37 0 43
-8 23 -28 -18 -18 -2 -15 42 8 22 11 49 20 61 20 19 0 17 -5 -19 -44 -22 -24
-52 -67 -66 -94 -21 -41 -23 -52 -13 -67 12 -15 18 -11 59 37 53 62 255 188
388 242 80 33 109 51 99 61 -3 2 -55 -16 -116 -40 -62 -25 -117 -45 -123 -45
-35 0 29 50 134 105 37 20 106 61 152 92 66 44 88 54 109 49 32 -8 32 -24 0
-32 -14 -3 -25 -10 -25 -15 0 -14 38 -10 47 4 4 8 25 17 46 20 42 6 206 78
207 90 0 18 -64 4 -107 -23 -55 -35 -73 -37 -97 -11 -10 11 -32 23 -50 26 -17
4 -51 18 -75 31 -39 21 -47 23 -65 11 -12 -8 -34 -17 -51 -21 -16 -4 -82 -32
-145 -63 -119 -57 -176 -83 -222 -102 -24 -9 -29 -8 -38 10 -6 11 -14 51 -17
90 -3 38 -10 69 -14 69 -13 0 -10 -85 6 -175 18 -98 18 -101 3 -103 -82 -6
-134 -12 -188 -22 -36 -7 -72 -12 -80 -13 -8 0 -18 -4 -21 -9 -3 -5 -20 5 -37
22 -31 31 -31 31 -36 8 -3 -13 -7 -34 -8 -48 -2 -17 -9 -25 -23 -25 -17 0 -20
8 -23 47 -2 27 -7 48 -13 48 -10 0 -12 -16 -10 -65 l2 -30 -23 30 c-13 17 -34
40 -47 52 -18 18 -22 29 -18 52 4 19 1 33 -8 41 -8 7 -15 20 -15 30 0 10 -7
23 -15 30 -11 9 -15 29 -14 69 2 54 -12 134 -31 176 -13 31 -22 160 -25 375
-3 188 -2 197 22 249 13 29 35 68 48 85 17 23 22 39 18 56 -6 23 -5 24 11 10
16 -12 19 -12 27 3 40 70 215 237 324 308 54 36 115 94 115 110 0 12 -39 -17
-68 -51 -19 -22 -43 -2 -58 50 -18 60 -42 74 -80 45z m62 -154 c-19 -19 -30
-9 -21 19 5 17 9 19 21 9 13 -11 13 -14 0 -28z m-773 -107 c4 -1 13 -2 20 -3
7 0 13 -10 14 -20 1 -13 -7 -21 -29 -25 -30 -6 -58 6 -58 26 0 15 24 36 35 30
6 -4 13 -7 18 -8z m428 -66 c31 1 37 -14 17 -40 -14 -16 -99 -48 -130 -48 -36
0 -17 18 32 30 57 14 66 22 45 40 -18 15 -20 35 -4 24 7 -4 25 -7 40 -6z
m-477 -23 c-15 -23 -15 -29 -3 -52 14 -27 14 -61 -1 -77 -6 -6 -27 7 -53 31
-24 23 -58 44 -76 48 -17 3 -31 10 -31 15 0 9 93 47 130 53 51 9 51 8 34 -18z
m411 16 c-6 -5 -35 -16 -65 -26 -30 -10 -61 -22 -67 -27 -15 -12 -51 -1 -37
11 5 5 36 16 69 26 33 9 65 19 70 20 22 7 39 5 30 -4z m-301 -273 c8 -32 7
-40 -3 -34 -11 7 -21 56 -11 56 4 0 10 -10 14 -22z m-94 -68 c0 -13 -1 -13
-10 0 -5 8 -10 22 -10 30 0 13 1 13 10 0 5 -8 10 -22 10 -30z m157 -177 c-3
-2 -12 15 -22 39 -28 69 -27 78 0 19 14 -29 24 -55 22 -58z m-82 1 l5 -29 -14
30 c-7 17 -16 44 -19 60 l-6 30 14 -31 c8 -17 16 -44 20 -60z m105 -49 c0 -5
-5 -3 -10 5 -5 8 -10 20 -10 25 0 6 5 3 10 -5 5 -8 10 -19 10 -25z m-71 -65
c1 -26 -16 10 -23 50 l-6 35 14 -35 c8 -19 15 -42 15 -50z m672 -942 c1 -7 1
-18 0 -24 -1 -7 10 -15 24 -18 14 -4 25 -11 25 -16 0 -11 -88 -134 -98 -137
-9 -4 -50 60 -57 89 -4 18 4 34 38 71 44 47 66 58 68 35z m261 -353 c50 -34
57 -51 53 -120 -3 -45 -9 -65 -28 -87 -23 -25 -28 -27 -56 -17 -18 6 -45 9
-61 5 -22 -4 -28 -2 -24 8 3 8 -7 22 -26 32 -32 19 -70 74 -70 100 0 23 32 65
65 85 43 27 102 24 147 -6z m283 -175 c-3 -5 -12 -10 -20 -10 -8 0 -17 5 -20
10 -4 6 5 10 20 10 15 0 24 -4 20 -10z"></path>
<path d="M5655 2911 c-8 -13 16 -51 32 -51 7 0 13 5 13 10 0 6 -7 10 -15 10
-8 0 -12 6 -9 14 6 16 -12 31 -21 17z"></path>
<path d="M5940 2894 c0 -8 5 -12 10 -9 6 3 10 10 10 16 0 5 -4 9 -10 9 -5 0
-10 -7 -10 -16z"></path>
<path d="M3365 2890 c-8 -12 20 -24 35 -15 5 3 10 10 10 16 0 12 -37 12 -45
-1z"></path>
<path d="M5850 2874 c0 -8 5 -12 10 -9 6 3 10 10 10 16 0 5 -4 9 -10 9 -5 0
-10 -7 -10 -16z"></path>
<path d="M5114 2862 c-7 -4 -13 -15 -15 -25 -3 -12 -27 -27 -69 -43 -36 -14
-75 -30 -87 -36 -12 -6 -32 -8 -45 -5 -22 6 -24 4 -20 -28 3 -21 0 -35 -7 -35
-6 0 -11 5 -11 10 0 6 -8 10 -18 10 -10 0 -23 5 -30 12 -9 9 -12 9 -12 -3 0
-14 91 -59 120 -59 8 0 30 -9 48 -20 72 -44 7 -88 -129 -90 -35 0 -61 -5 -68
-13 -15 -19 -4 -27 36 -27 18 0 33 -3 33 -6 0 -17 -45 -84 -56 -84 -7 0 -28
-19 -46 -41 -62 -78 -76 -89 -110 -89 -18 0 -47 9 -65 20 -39 23 -53 67 -53
165 0 49 -3 66 -11 58 -20 -20 -22 -92 -4 -159 15 -57 22 -67 54 -83 93 -48
151 -33 205 52 l35 54 97 7 c136 9 135 8 129 160 -5 116 -4 122 18 138 17 13
19 20 10 29 -10 10 -16 9 -28 -1 -8 -7 -18 -10 -21 -7 -7 7 45 55 61 58 49 7
73 21 80 46 7 29 -4 46 -21 35z"></path>
<path d="M5920 2856 c0 -9 7 -16 16 -16 9 0 14 5 12 12 -6 18 -28 21 -28 4z"></path>
<path d="M5705 2850 c-10 -17 12 -37 25 -24 8 8 6 15 -4 23 -10 9 -16 9 -21 1z"></path>
<path d="M5755 2850 c3 -5 8 -10 11 -10 2 0 4 5 4 10 0 6 -5 10 -11 10 -5 0
-7 -4 -4 -10z"></path>
<path d="M6258 2840 c-14 -10 -28 -16 -32 -13 -3 3 -6 -1 -6 -10 0 -22 6 -21
40 3 15 11 30 16 34 13 4 -4 4 0 0 10 -8 21 -6 21 -36 -3z"></path>
<path d="M6150 2837 c0 -8 11 -22 25 -31 37 -25 31 2 -7 33 -15 11 -18 11 -18
-2z"></path>
<path d="M3170 2827 c0 -18 36 -50 85 -76 43 -23 65 -27 65 -11 0 6 -6 10 -12
10 -7 0 -40 20 -73 45 -33 25 -61 45 -62 45 -2 0 -3 -6 -3 -13z"></path>
<path d="M5777 2823 c-12 -11 -8 -23 8 -23 8 0 15 7 15 15 0 16 -12 20 -23 8z"></path>
<path d="M5897 2813 c-13 -12 -7 -80 7 -92 8 -7 30 -15 50 -18 29 -5 36 -2 36
11 0 13 -6 15 -25 10 -31 -8 -55 10 -55 42 0 29 34 33 49 7 5 -10 13 -14 17
-10 5 4 -5 19 -21 32 -31 25 -47 30 -58 18z"></path>
<path d="M6076 2811 c-4 -5 -2 -20 3 -33 8 -21 14 -23 50 -20 23 2 41 8 41 13
0 5 -5 9 -11 9 -6 0 -22 9 -36 20 -28 22 -39 25 -47 11z"></path>
<path d="M3690 2800 c0 -5 5 -10 10 -10 6 0 10 5 10 10 0 6 -4 10 -10 10 -5 0
-10 -4 -10 -10z"></path>
<path d="M5850 2795 c0 -8 5 -15 10 -15 6 0 10 7 10 15 0 8 -4 15 -10 15 -5 0
-10 -7 -10 -15z"></path>
<path d="M6022 2785 c1 -14 9 -25 16 -25 9 0 12 6 8 16 -3 9 -6 20 -6 25 0 5
-4 9 -10 9 -5 0 -9 -11 -8 -25z"></path>
<path d="M3720 2736 c0 -9 5 -16 10 -16 6 0 10 4 10 9 0 6 -4 13 -10 16 -5 3
-10 -1 -10 -9z"></path>
<path d="M4706 2733 c-3 -10 -9 -25 -12 -33 -4 -8 3 -3 15 12 23 28 26 38 12
38 -5 0 -11 -8 -15 -17z"></path>
<path d="M6010 2742 c0 -5 3 -12 8 -16 4 -4 7 -12 7 -17 0 -13 19 -13 23 0 2
6 -1 11 -7 11 -6 0 -11 7 -11 15 0 8 -4 15 -10 15 -5 0 -10 -4 -10 -8z"></path>
<path d="M5865 2710 c-9 -15 -1 -23 21 -18 15 3 16 4 1 16 -11 9 -17 10 -22 2z"></path>
<path d="M6075 2711 c-6 -11 9 -23 19 -14 9 9 7 23 -3 23 -6 0 -12 -4 -16 -9z"></path>
<path d="M266 2693 c5 -10 7 -79 5 -153 -2 -132 0 -153 33 -274 16 -61 31
-366 31 -616 -1 -158 -18 -320 -44 -404 -5 -17 -10 -38 -10 -46 -3 -56 -15
-137 -21 -145 -4 -5 -11 -26 -15 -45 -4 -19 -14 -43 -23 -53 -12 -13 -13 -20
-4 -29 9 -9 12 -8 12 5 0 22 8 21 28 -2 12 -14 33 -21 71 -23 54 -3 55 -3 75
35 11 20 25 37 32 37 6 0 25 7 40 15 16 8 71 24 121 36 51 12 90 25 87 30 -3
5 -47 9 -97 10 -135 1 -162 15 -142 67 6 16 7 16 16 0 14 -26 23 -23 85 27 56
46 84 56 84 30 0 -8 9 -15 20 -15 27 0 90 58 90 84 1 20 2 20 14 4 7 -10 17
-18 21 -18 4 0 30 -13 57 -30 58 -36 58 -36 58 -9 0 15 5 19 15 15 9 -3 18 1
21 8 7 19 -14 94 -29 103 -7 4 -21 44 -31 88 -10 44 -24 89 -31 100 -6 11 -15
38 -20 60 -8 40 -8 40 -17 13 -16 -47 -25 -32 -31 50 -4 69 -30 154 -76 257
-5 11 -12 36 -15 56 -7 41 -69 174 -96 204 -10 11 -30 46 -46 78 -15 32 -39
69 -52 82 -30 30 -53 72 -108 198 -46 103 -93 186 -108 187 -4 0 -4 -8 0 -17z"></path>
<path d="M3730 2691 c0 -6 5 -13 10 -16 6 -3 10 1 10 9 0 9 -4 16 -10 16 -5 0
-10 -4 -10 -9z"></path>
<path d="M4670 2657 c-9 -19 -11 -36 -4 -54 11 -32 57 -68 78 -60 12 5 9 13
-17 42 -18 20 -35 51 -38 68 l-5 32 -14 -28z"></path>
<path d="M4595 2640 c-3 -5 -16 -10 -28 -10 -24 -1 -74 -37 -63 -47 3 -3 14 1
24 10 10 10 28 17 39 17 11 0 28 9 38 20 10 11 13 20 7 20 -6 0 -14 -4 -17
-10z"></path>
<path d="M5920 2640 c0 -5 5 -10 10 -10 6 0 10 5 10 10 0 6 -4 10 -10 10 -5 0
-10 -4 -10 -10z"></path>
<path d="M3780 2530 c0 -5 5 -10 10 -10 6 0 10 5 10 10 0 6 -4 10 -10 10 -5 0
-10 -4 -10 -10z"></path>
<path d="M3796 2448 c7 -56 10 -65 20 -55 9 9 -7 107 -17 107 -6 0 -7 -22 -3
-52z"></path>
<path d="M5858 2483 c-9 -10 -39 -90 -68 -178 -32 -100 -59 -166 -71 -175 -13
-10 -16 -19 -10 -25 10 -10 -1 -52 -68 -265 -45 -144 -80 -243 -91 -262 -5
-10 -10 -28 -10 -40 0 -13 -31 -115 -69 -227 -61 -186 -70 -206 -94 -214 -32
-10 -34 -18 -7 -35 22 -14 72 -106 63 -116 -4 -3 -21 -6 -40 -6 -18 0 -33 -2
-33 -5 0 -3 111 -215 247 -470 l247 -465 218 0 c132 0 218 4 218 10 0 5 -16
22 -34 37 -24 18 -32 31 -26 38 11 13 -58 75 -82 75 -11 0 -68 61 -68 73 0 2
-21 25 -46 53 -26 27 -60 70 -76 96 -16 27 -34 48 -38 48 -9 0 -192 273 -242
360 -14 25 -29 60 -33 78 -4 17 -12 32 -20 32 -17 0 -38 26 -50 64 -14 42 -94
92 -124 77 -17 -9 -22 -8 -31 10 -9 16 -8 32 6 72 24 70 28 73 63 48 17 -12
54 -25 83 -28 31 -4 73 -19 104 -37 51 -30 52 -33 56 -81 6 -67 -4 -77 -61
-70 l-46 6 25 -20 c22 -19 36 -21 130 -19 107 3 175 -12 167 -36 -2 -6 -26
-11 -53 -12 -50 -1 -54 -6 -39 -52 7 -20 25 -14 25 9 0 16 4 19 19 14 11 -3
46 5 80 20 33 14 63 25 66 25 11 0 4 -37 -11 -58 -10 -14 -14 -32 -10 -48 8
-30 2 -30 -53 1 -52 30 -51 30 -51 6 0 -12 19 -31 53 -52 28 -19 96 -65 150
-103 54 -38 100 -66 104 -63 3 4 14 -4 23 -16 22 -27 87 -67 75 -46 -4 8 -15
22 -23 32 -9 10 -10 17 -4 17 6 0 35 -27 64 -60 29 -33 95 -90 146 -126 64
-45 92 -71 92 -85 0 -27 -66 -169 -78 -169 -6 0 -17 -19 -25 -42 -8 -24 -18
-51 -22 -60 -6 -16 1 -18 74 -18 58 0 81 4 81 13 0 6 29 71 64 143 35 72 82
175 106 230 49 116 107 246 161 362 l39 84 0 191 c-1 164 -3 189 -14 174 -8
-10 -17 -39 -21 -64 -4 -25 -16 -59 -27 -74 -11 -15 -18 -34 -15 -43 4 -9 -1
-17 -14 -21 -13 -4 -19 -15 -19 -35 0 -15 -6 -30 -14 -33 -7 -3 -17 -23 -21
-44 -3 -21 -13 -46 -22 -55 -9 -10 -12 -25 -8 -37 4 -15 -1 -27 -18 -43 -13
-13 -27 -38 -30 -56 -10 -48 -52 -132 -90 -175 l-32 -39 -94 48 c-64 33 -100
58 -112 78 -21 34 -19 48 18 120 13 26 21 51 18 54 -3 4 -10 0 -14 -7 -6 -9
-10 -6 -14 11 -10 39 -75 115 -128 149 -28 17 -77 63 -111 100 -51 58 -66 69
-93 69 -22 0 -45 12 -83 44 -29 25 -78 57 -109 72 -32 15 -73 38 -91 52 -44
34 -53 20 -14 -21 39 -40 40 -47 4 -47 -39 0 -59 26 -64 83 -2 26 -2 47 -1 47
1 0 32 -17 69 -37 52 -29 79 -37 120 -37 30 -1 54 2 54 5 0 3 -14 18 -31 35
-21 20 -28 23 -23 10 6 -15 3 -17 -12 -12 -10 3 -46 12 -80 19 -33 8 -70 19
-81 25 -11 6 -23 9 -25 6 -3 -2 -11 8 -17 24 -14 35 -46 59 -129 101 -65 33
-76 48 -40 53 19 3 27 20 56 113 19 61 38 118 43 128 5 10 7 22 4 27 -7 12 10
117 26 155 14 34 13 30 23 73 6 26 11 31 21 22 11 -9 21 14 54 114 23 68 41
127 41 131 0 4 -7 4 -16 1 -10 -4 -7 4 9 23 18 22 25 42 25 77 1 53 5 59 45
68 21 5 29 2 34 -11 4 -9 1 -19 -5 -21 -7 -2 -12 -15 -12 -28 0 -13 -4 -24
-10 -24 -26 0 -4 -20 55 -50 36 -19 75 -42 87 -52 12 -10 26 -18 32 -19 6 0
21 -13 34 -29 18 -24 24 -47 31 -136 5 -65 13 -110 20 -112 6 -2 11 -9 11 -16
0 -11 52 -56 65 -56 3 0 11 -5 18 -11 7 -6 28 -20 49 -32 20 -12 65 -42 100
-66 173 -120 266 -147 328 -95 40 34 97 40 176 20 34 -9 67 -16 73 -16 8 0 11
46 11 145 l0 145 -50 25 c-27 14 -159 75 -292 136 -134 61 -247 115 -252 120
-21 20 -28 7 -8 -14 26 -28 28 -49 5 -88 -18 -31 -25 -34 -88 -44 -32 -5 -44
-2 -57 12 -28 32 -24 95 10 155 9 15 14 29 11 31 -10 8 -388 177 -396 177 -6
0 -17 -8 -25 -17z m-226 -1073 c10 0 39 -20 63 -45 38 -38 45 -51 45 -84 0
-34 -5 -44 -39 -70 -21 -17 -44 -31 -49 -31 -6 0 -38 17 -72 38 -55 34 -60 40
-56 67 8 63 61 154 79 136 6 -6 19 -11 29 -11z m-98 -212 c35 -23 45 -38 26
-38 -17 0 -65 27 -79 44 -21 25 10 21 53 -6z m235 -22 c9 -11 9 -19 -1 -35
-15 -25 -31 -26 -63 -5 -31 20 -31 28 -2 42 31 15 53 14 66 -2z m156 -128 c95
-83 108 -101 80 -112 -20 -7 -227 23 -242 36 -15 12 -18 78 -4 78 5 0 22 -8
39 -17 36 -21 72 -12 51 14 -8 9 -29 22 -46 30 -36 14 -36 14 -27 37 13 35 54
17 149 -66z"></path>
<path d="M3914 2364 c14 -249 17 -300 26 -384 14 -126 13 -171 -7 -192 -15
-17 -15 -20 -3 -28 8 -6 32 -10 53 -10 44 0 52 -25 12 -40 -14 -5 -25 -14 -25
-20 0 -23 30 -7 90 49 35 33 74 65 88 73 14 7 50 41 81 75 40 45 63 63 81 63
26 0 35 12 93 112 25 44 26 49 10 55 -24 8 -73 61 -73 78 0 8 -4 17 -10 20 -5
3 -10 -3 -10 -15 0 -50 -34 -76 -60 -45 -8 9 -21 13 -32 9 -13 -4 -27 2 -42
18 -17 20 -33 25 -75 27 -96 3 -165 45 -167 101 -4 104 -14 175 -25 179 -9 3
-10 -27 -5 -125z m476 -277 c0 -21 -81 -107 -100 -107 -10 0 -52 -37 -94 -82
-42 -45 -76 -77 -76 -72 0 14 15 60 53 159 33 87 35 90 65 90 17 0 36 5 43 12
15 15 109 15 109 0z"></path>
<path d="M180 2390 c0 -33 4 -60 10 -60 6 0 10 27 10 60 0 33 -4 60 -10 60 -6
0 -10 -27 -10 -60z"></path>
<path d="M460 2408 c0 -9 5 -20 10 -23 13 -8 13 5 0 25 -8 13 -10 13 -10 -2z"></path>
<path d="M4945 2295 l-60 -55 55 6 c30 4 58 9 61 13 10 10 20 91 12 91 -5 0
-35 -25 -68 -55z"></path>
<path d="M2505 2309 c-4 -6 -5 -12 -2 -15 7 -7 37 7 37 17 0 13 -27 11 -35 -2z"></path>
<path d="M4290 2310 c0 -5 5 -10 10 -10 6 0 10 5 10 10 0 6 -4 10 -10 10 -5 0
-10 -4 -10 -10z"></path>
<path d="M4177 2242 c-10 -10 -14 -22 -10 -25 7 -8 43 21 43 35 0 14 -16 9
-33 -10z"></path>
<path d="M5650 2250 c0 -5 5 -10 11 -10 5 0 7 5 4 10 -3 6 -8 10 -11 10 -2 0
-4 -4 -4 -10z"></path>
<path d="M4970 2164 c-13 -42 -26 -72 -27 -67 -2 5 5 37 16 71 l19 62 -24 0
c-19 0 -29 -10 -45 -42 -11 -24 -17 -35 -14 -25 18 64 18 65 -10 59 -19 -3
-30 -15 -42 -44 -18 -46 -28 -46 -11 0 14 37 9 45 -25 37 -20 -5 -32 -23 -56
-81 -17 -41 -29 -79 -26 -84 3 -4 2 -10 -2 -12 -15 -6 -62 -117 -53 -123 5 -3
18 0 30 7 16 10 24 10 40 0 23 -14 56 -16 64 -3 3 4 17 6 31 4 13 -3 33 -2 42
2 10 4 30 7 45 6 15 -1 33 1 40 5 6 4 28 8 47 8 34 1 37 3 48 48 6 26 14 51
17 56 3 4 -6 26 -19 47 l-23 39 -15 -54 c-9 -30 -19 -70 -22 -87 -4 -18 -11
-33 -17 -33 -6 0 -8 7 -5 15 29 73 49 178 43 219 -4 25 -11 46 -15 46 -4 0
-18 -34 -31 -76z m-44 -149 c-15 -58 -22 -72 -31 -63 -3 3 5 33 17 66 27 76
34 74 14 -3z m-145 -2 c-15 -50 -21 -58 -44 -61 -32 -4 -37 17 -6 25 13 4 28
23 40 49 26 61 30 55 10 -13z m86 50 c-3 -5 -12 -34 -21 -65 -9 -32 -21 -58
-26 -58 -8 0 -1 28 29 103 6 15 13 27 16 27 4 0 4 -3 2 -7z"></path>
<path d="M4665 2210 c-27 -5 -78 -9 -112 -9 -35 -1 -65 -6 -69 -12 -5 -9 26
-10 121 -5 132 8 155 12 155 27 0 10 -23 10 -95 -1z"></path>
<path d="M2736 2172 c-3 -6 1 -15 8 -21 8 -7 17 -8 20 -3 3 6 -1 15 -8 21 -8
7 -17 8 -20 3z"></path>
<path d="M4397 2164 c-15 -16 -5 -24 28 -24 19 0 35 5 35 10 0 6 -6 10 -14 10
-8 0 -21 2 -28 5 -8 3 -17 2 -21 -1z"></path>
<path d="M2513 2109 c-24 -11 -43 -24 -43 -29 0 -16 19 -21 37 -10 10 6 36 16
57 23 22 8 41 18 43 24 6 17 -50 12 -94 -8z"></path>
<path d="M5660 2076 c-8 -8 -37 -35 -65 -60 -40 -37 -47 -48 -35 -55 8 -6 11
-13 7 -17 -3 -4 -14 -1 -22 6 -14 11 -23 6 -66 -36 -28 -27 -55 -58 -60 -69
-5 -11 -15 -28 -21 -38 -10 -13 -10 -20 -2 -25 6 -4 20 -25 32 -47 11 -22 29
-48 40 -58 20 -18 20 -18 27 2 6 19 -8 59 -25 71 -13 9 -20 59 -10 65 5 3 10
19 10 36 0 16 5 29 10 29 6 0 10 -7 10 -15 0 -8 4 -15 8 -15 14 0 32 23 32 42
0 11 7 18 19 18 21 0 35 16 36 38 0 7 11 18 25 25 13 7 27 23 30 37 3 14 16
29 28 35 12 5 22 18 22 27 0 22 -11 23 -30 4z"></path>
<path d="M5470 2066 c0 -9 5 -16 10 -16 6 0 10 4 10 9 0 6 -4 13 -10 16 -5 3
-10 -1 -10 -9z"></path>
<path d="M5076 2014 c-4 -19 -10 -42 -13 -51 -4 -11 0 -14 18 -11 38 5 47 98
9 98 -4 0 -11 -16 -14 -36z"></path>
<path d="M2580 2030 c0 -5 5 -10 10 -10 6 0 10 5 10 10 0 6 -4 10 -10 10 -5 0
-10 -4 -10 -10z"></path>
<path d="M5741 2004 c0 -11 3 -14 6 -6 3 7 2 16 -1 19 -3 4 -6 -2 -5 -13z"></path>
<path d="M5140 1992 c0 -12 19 -26 26 -19 2 2 -2 10 -11 17 -9 8 -15 8 -15 2z"></path>
<path d="M2453 1983 c-28 -11 -10 -18 47 -19 61 -1 79 9 38 20 -27 7 -68 7
-85 -1z"></path>
<path d="M3880 1943 c-1 -16 -7 -55 -15 -88 -19 -77 -19 -87 1 -83 12 2 17 15
19 43 1 22 5 66 10 98 5 41 4 57 -4 57 -6 0 -11 -12 -11 -27z"></path>
<path d="M5630 1950 c0 -5 5 -10 10 -10 6 0 10 5 10 10 0 6 -4 10 -10 10 -5 0
-10 -4 -10 -10z"></path>
<path d="M4380 1942 c0 -5 37 -12 83 -15 116 -10 183 -9 172 2 -14 12 -255 25
-255 13z"></path>
<path d="M5165 1931 c-16 -8 -44 -14 -61 -12 -18 1 -35 -2 -38 -7 -3 -6 -24
-8 -46 -5 -26 4 -40 2 -40 -5 0 -17 31 -21 172 -24 123 -3 126 -2 110 16 -9
10 -28 26 -42 35 -23 16 -28 16 -55 2z"></path>
<path d="M3003 1882 c5 -29 3 -43 -8 -52 -8 -7 -13 -15 -10 -19 2 -4 -3 -39
-11 -78 -8 -39 -13 -86 -12 -104 3 -29 -1 -35 -19 -37 -13 -2 -23 -8 -23 -13
0 -7 12 -8 33 -3 17 4 64 6 102 6 74 -2 165 15 165 31 0 5 -12 6 -27 2 -52
-13 -108 -16 -153 -8 -42 8 -45 11 -48 41 -2 18 2 39 7 46 6 8 8 21 5 30 -4
10 1 34 10 55 21 44 18 132 -3 139 -11 4 -13 -4 -8 -36z"></path>
<path d="M2680 1901 c0 -5 5 -13 10 -16 6 -3 10 -2 10 4 0 5 -4 13 -10 16 -5
3 -10 2 -10 -4z"></path>
<path d="M5565 1889 c-12 -19 5 -23 22 -6 16 16 16 17 1 17 -9 0 -20 -5 -23
-11z"></path>
<path d="M2732 1879 c5 -17 48 -25 48 -10 0 6 -4 11 -9 11 -5 0 -17 3 -27 7
-12 4 -15 2 -12 -8z"></path>
<path d="M2560 1820 c0 -5 7 -10 15 -10 8 0 15 5 15 10 0 6 -7 10 -15 10 -8 0
-15 -4 -15 -10z"></path>
<path d="M2761 1821 c-38 -4 -66 -11 -69 -18 -5 -16 133 -18 143 -3 3 6 31 10
61 10 30 0 54 5 54 10 0 10 -78 11 -189 1z"></path>
<path d="M5510 1788 c0 -44 23 -78 41 -61 10 10 9 16 -4 31 -9 10 -17 26 -17
35 0 9 -4 19 -10 22 -6 4 -10 -8 -10 -27z"></path>
<path d="M2590 1755 c-95 -34 -140 -54 -140 -63 0 -18 12 -19 46 -2 60 31 161
44 236 31 78 -13 118 -14 118 -2 0 5 -33 15 -72 21 -40 7 -84 18 -98 25 -22
11 -34 10 -90 -10z"></path>
<path d="M5315 1720 c-37 -37 -56 -63 -50 -69 6 -5 51 -26 100 -47 50 -21 99
-44 110 -51 23 -16 35 -17 35 -3 0 15 -55 46 -132 76 -38 14 -71 30 -74 36 -4
6 12 27 35 48 22 21 41 45 41 54 0 9 -1 16 -3 16 -1 0 -29 -27 -62 -60z"></path>
<path d="M2127 1707 c3 -15 9 -27 14 -27 13 0 11 13 -5 35 -13 18 -14 18 -9
-8z"></path>
<path d="M3780 1695 c9 -11 33 -15 91 -15 44 0 79 4 79 9 0 7 -100 21 -159 21
-20 0 -21 -2 -11 -15z"></path>
<path d="M1445 1673 c4 -10 11 -32 16 -50 9 -30 29 -55 29 -35 0 22 -33 102
-42 102 -6 0 -7 -8 -3 -17z"></path>
<path d="M5526 1681 c-4 -7 -5 -15 -2 -18 9 -9 19 4 14 18 -4 11 -6 11 -12 0z"></path>
<path d="M3905 1640 c-16 -11 -45 -20 -64 -20 -27 0 -32 -3 -27 -17 4 -9 1
-20 -6 -24 -23 -15 -2 -18 36 -7 41 13 131 87 106 88 -8 0 -28 -9 -45 -20z"></path>
<path d="M4651 1645 c-46 -14 -87 -47 -102 -80 -5 -11 -13 -27 -18 -35 -5 -8
-12 -23 -15 -34 -6 -19 -5 -19 -94 0 -34 7 -92 -36 -92 -67 0 -11 -4 -18 -8
-15 -11 7 -174 -14 -195 -26 -37 -20 -4 -30 87 -27 l91 4 7 -53 c9 -60 49
-147 73 -156 29 -11 52 -6 71 15 16 18 26 20 94 14 139 -12 245 -43 377 -108
56 -28 77 -33 116 -29 58 5 60 18 5 32 -24 6 -108 33 -188 59 -137 46 -192 61
-284 76 -21 3 -48 10 -61 15 -22 8 -22 9 -8 66 11 43 12 66 4 98 -13 54 2 68
24 22 21 -44 55 -72 103 -86 29 -7 44 -6 79 10 24 10 51 16 60 13 13 -5 15 -2
11 15 -7 24 22 52 52 52 20 0 63 44 53 53 -10 11 -51 8 -59 -4 -12 -20 -24 16
-18 50 7 32 22 39 41 20 16 -16 76 -28 191 -39 158 -14 210 -43 299 -167 25
-35 51 -63 59 -63 31 0 25 31 -18 81 -63 76 -148 135 -226 158 -56 17 -291 61
-323 61 -5 0 -29 20 -53 45 -48 49 -63 52 -135 30z m116 -41 c9 -15 17 -47 17
-73 l1 -46 -39 -3 c-27 -2 -40 -9 -43 -22 -6 -23 -33 -34 -47 -20 -12 12 -53
13 -60 2 -9 -15 10 -28 64 -41 40 -10 55 -11 58 -2 5 14 39 15 47 1 10 -16
-57 -50 -99 -50 -38 0 -76 22 -76 43 0 5 -12 23 -26 40 -21 25 -24 37 -19 66
14 74 86 130 167 131 30 0 41 -6 55 -26z m-313 -143 c20 -22 14 -43 -10 -34
-14 5 -43 -21 -44 -39 0 -12 45 -9 57 3 17 17 36 -44 29 -96 -4 -24 -11 -47
-15 -49 -11 -7 -115 25 -123 38 -4 6 -8 27 -8 47 0 29 4 38 21 42 18 5 21 11
15 38 -11 57 41 91 78 50z m-35 -252 c33 -12 37 -32 7 -37 -18 -4 -56 24 -56
40 0 11 11 10 49 -3z"></path>
<path d="M2551 1625 c-54 -29 -71 -45 -50 -45 8 0 21 6 27 12 7 7 30 18 50 23
20 6 36 15 35 20 -3 17 -17 15 -62 -10z"></path>
<path d="M2703 1643 c-13 -2 -23 -9 -23 -15 0 -7 18 -9 53 -4 28 3 71 6 95 6
23 0 42 5 42 10 0 10 -121 12 -167 3z"></path>
<path d="M3745 1589 c-4 -6 -13 -8 -21 -5 -16 6 -18 -3 -5 -22 6 -11 14 -10
40 6 17 10 28 22 24 25 -10 10 -31 8 -38 -4z"></path>
<path d="M2845 1570 c-4 -6 5 -10 19 -10 14 0 26 5 26 10 0 6 -9 10 -19 10
-11 0 -23 -4 -26 -10z"></path>
<path d="M6968 1574 c-3 -3 -27 -7 -53 -9 -26 -2 -50 -7 -53 -10 -4 -4 17 -28
45 -55 29 -26 57 -59 63 -74 19 -51 30 -27 30 64 0 68 -3 90 -13 90 -8 0 -16
-3 -19 -6z"></path>
<path d="M1490 1556 c0 -9 5 -16 10 -16 6 0 10 4 10 9 0 6 -4 13 -10 16 -5 3
-10 -1 -10 -9z"></path>
<path d="M2710 1549 c-104 -27 -164 -59 -129 -71 6 -2 -7 -17 -30 -32 -23 -16
-41 -33 -41 -38 0 -12 3 -10 62 27 26 16 49 37 51 46 3 11 22 22 48 29 69 17
129 41 129 51 0 12 -1 11 -90 -12z"></path>
<path d="M4010 1521 c0 -11 5 -12 65 -17 17 -1 48 -5 70 -9 38 -7 39 -6 19 8
-27 20 -154 35 -154 18z"></path>
<path d="M1506 1501 c-8 -12 31 -101 44 -101 12 0 13 17 1 24 -5 3 -12 21 -15
41 -7 36 -20 52 -30 36z"></path>
<path d="M4216 1491 c15 -14 54 -23 54 -13 0 5 -10 12 -22 16 -33 8 -44 8 -32
-3z"></path>
<path d="M2500 1460 c-9 -6 -10 -10 -3 -10 6 0 15 5 18 10 8 12 4 12 -15 0z"></path>
<path d="M2590 1390 c0 -5 5 -10 10 -10 6 0 10 5 10 10 0 6 -4 10 -10 10 -5 0
-10 -4 -10 -10z"></path>
<path d="M3700 1390 c0 -5 5 -10 10 -10 6 0 10 5 10 10 0 6 -4 10 -10 10 -5 0
-10 -4 -10 -10z"></path>
<path d="M3605 1370 c-3 -5 1 -10 9 -10 9 0 16 5 16 10 0 6 -4 10 -9 10 -6 0
-13 -4 -16 -10z"></path>
<path d="M2543 1353 c-3 -10 -8 -21 -10 -25 -2 -5 8 -8 24 -8 22 0 25 2 13 10
-12 8 -12 10 5 11 11 0 14 3 7 6 -6 2 -10 9 -6 14 3 5 -2 9 -11 9 -8 0 -18 -8
-22 -17z"></path>
<path d="M2640 1346 c-12 -33 -12 -36 -1 -36 10 0 25 50 17 58 -3 2 -10 -7
-16 -22z"></path>
<path d="M3735 1360 c3 -5 13 -10 21 -10 8 0 14 5 14 10 0 6 -9 10 -21 10 -11
0 -17 -4 -14 -10z"></path>
<path d="M2670 1320 c0 -11 5 -20 10 -20 6 0 10 9 10 20 0 11 -4 20 -10 20 -5
0 -10 -9 -10 -20z"></path>
<path d="M3940 1252 c0 -13 27 -34 127 -97 51 -31 91 -61 88 -65 -2 -4 -37
-10 -77 -14 -40 -3 -94 -9 -120 -12 l-47 -6 -25 -76 c-14 -42 -24 -78 -21 -80
8 -8 623 61 630 71 1 1 5 35 9 75 5 54 3 74 -6 77 -7 3 -76 -3 -153 -14 -135
-18 -141 -18 -155 -1 -15 18 -228 150 -242 150 -5 0 -8 -4 -8 -8z"></path>
<path d="M805 1180 c3 -5 8 -10 11 -10 2 0 4 5 4 10 0 6 -5 10 -11 10 -5 0 -7
-4 -4 -10z"></path>
<path d="M920 1162 c0 -5 8 -12 18 -16 9 -3 23 -9 30 -12 6 -3 12 -1 12 4 0 5
-8 12 -17 16 -10 3 -24 9 -30 12 -7 3 -13 1 -13 -4z"></path>
<path d="M4586 1080 c58 -71 87 -89 77 -47 -7 30 -93 117 -115 117 -13 0 -4
-17 38 -70z"></path>
<path d="M884 1096 c-4 -12 1 -22 15 -33 28 -19 26 -69 -2 -66 -10 0 -100 -10
-200 -23 -100 -13 -196 -24 -213 -24 -30 0 -63 -24 -51 -36 3 -3 97 8 209 25
124 19 242 31 302 31 l99 0 -23 25 c-21 22 -24 23 -35 8 -16 -22 -31 -10 -39
30 -3 19 -17 44 -31 57 -22 21 -25 21 -31 6z"></path>
<path d="M990 1101 c0 -13 29 -35 37 -28 7 8 -15 37 -28 37 -5 0 -9 -4 -9 -9z"></path>
<path d="M2860 990 c0 -11 5 -20 10 -20 6 0 10 9 10 20 0 11 -4 20 -10 20 -5
0 -10 -9 -10 -20z"></path>
<path d="M5175 981 c-7 -12 0 -14 28 -12 9 1 20 -6 24 -16 3 -10 12 -25 20
-35 8 -9 15 -22 16 -30 2 -7 10 -24 20 -38 9 -13 17 -32 17 -42 0 -10 5 -18
10 -18 6 0 10 5 10 11 0 9 -36 87 -62 134 -6 11 -14 27 -18 35 -8 18 -55 26
-65 11z"></path>
<path d="M5075 971 c-16 -3 -28 -11 -26 -16 1 -6 8 -9 14 -7 6 2 26 4 44 6 18
1 34 6 36 11 3 12 -28 15 -68 6z"></path>
<path d="M4950 947 c0 -10 9 -14 28 -13 39 4 43 20 5 24 -24 2 -33 -1 -33 -11z"></path>
<path d="M4910 935 c0 -16 16 -20 24 -6 3 5 -1 11 -9 15 -9 3 -15 0 -15 -9z"></path>
<path d="M4815 930 c-4 -6 8 -10 29 -10 20 0 36 5 36 10 0 6 -13 10 -29 10
-17 0 -33 -4 -36 -10z"></path>
<path d="M4713 922 c-34 -5 -28 -22 7 -22 17 0 30 4 30 9 0 14 -11 18 -37 13z"></path>
<path d="M4776 922 c-3 -6 -1 -14 5 -17 15 -10 25 3 12 16 -7 7 -13 7 -17 1z"></path>
<path d="M4570 898 c-36 -9 -64 -16 -67 -17 -1 -1 3 -15 9 -32 11 -32 23 -30
23 4 0 19 7 22 43 25 23 2 42 7 42 12 0 15 -14 17 -50 8z"></path>
<path d="M1230 864 c0 -8 48 -67 183 -222 15 -18 52 -44 82 -57 30 -14 60 -34
68 -45 7 -11 36 -29 63 -41 102 -45 277 -235 394 -426 30 -48 51 -73 63 -73
17 0 17 3 -5 39 -55 93 -123 188 -167 232 -26 26 -62 76 -81 111 -60 114 -110
195 -136 219 l-26 24 28 -50 27 -50 -90 85 c-50 47 -113 113 -141 146 -28 34
-64 71 -79 82 -29 20 -77 35 -85 27 -6 -6 16 -94 32 -127 10 -22 10 -22 -7 2
-67 92 -123 149 -123 124z"></path>
<path d="M5710 843 c1 -10 72 -64 77 -59 9 9 -12 37 -40 51 -34 17 -37 18 -37
8z"></path>
<path d="M2037 805 c9 -19 20 -35 25 -35 11 0 10 7 -7 40 -22 42 -38 37 -18
-5z"></path>
<path d="M5190 790 c0 -5 5 -10 10 -10 6 0 10 5 10 10 0 6 -4 10 -10 10 -5 0
-10 -4 -10 -10z"></path>
<path d="M4525 777 c-4 -10 -5 -21 -1 -24 10 -10 18 4 13 24 -4 17 -4 17 -12
0z"></path>
<path d="M5334 758 c4 -17 2 -28 -4 -28 -5 0 -10 -4 -10 -10 0 -5 7 -10 15
-10 20 0 47 -43 39 -64 -4 -11 -1 -16 10 -16 23 0 20 21 -15 86 -36 69 -44 79
-35 42z"></path>
<path d="M2080 709 c0 -6 11 -37 24 -68 38 -86 101 -241 120 -293 10 -27 22
-48 27 -48 13 0 13 2 -30 108 -22 53 -43 111 -47 127 -18 73 -94 214 -94 174z"></path>
<path d="M4530 700 c0 -11 4 -20 9 -20 11 0 22 26 14 34 -12 12 -23 5 -23 -14z"></path>
<path d="M1280 670 c0 -5 7 -10 16 -10 8 0 12 5 9 10 -3 6 -10 10 -16 10 -5 0
-9 -4 -9 -10z"></path>
<path d="M3910 672 c0 -5 11 -19 25 -32 29 -27 32 -21 9 15 -16 24 -34 33 -34
17z"></path>
<path d="M6970 628 c-12 -29 -46 -102 -75 -163 -123 -255 -213 -465 -199 -465
8 0 14 6 14 13 0 8 11 24 25 37 14 13 25 30 25 37 0 7 8 32 19 56 10 23 27 64
38 91 17 46 23 51 73 68 30 10 64 27 74 38 20 19 20 20 -12 64 -25 35 -31 50
-26 75 4 17 9 31 12 31 3 0 19 -12 34 -27 l28 -27 0 112 c0 62 -2 112 -4 112
-2 0 -14 -23 -26 -52z m-20 -258 c0 -11 -33 -37 -57 -44 -30 -10 -31 16 -2 64
l21 34 19 -23 c11 -13 19 -27 19 -31z"></path>
<path d="M1320 661 c0 -5 10 -11 23 -15 36 -9 43 -6 23 9 -22 17 -46 20 -46 6z"></path>
<path d="M3678 620 c-3 -17 -2 -32 0 -35 6 -6 72 -7 72 -1 0 5 -60 66 -65 66
-1 0 -5 -14 -7 -30z"></path>
<path d="M5240 640 c0 -5 5 -10 10 -10 6 0 10 5 10 10 0 6 -4 10 -10 10 -5 0
-10 -4 -10 -10z"></path>
<path d="M4542 619 c2 -7 10 -15 17 -17 8 -3 12 1 9 9 -2 7 -10 15 -17 17 -8
3 -12 -1 -9 -9z"></path>
<path d="M5405 603 c4 -10 8 -24 9 -31 1 -7 8 -18 14 -24 7 -7 12 -17 12 -24
0 -6 7 -17 15 -24 8 -7 15 -9 15 -4 0 17 -54 124 -63 124 -5 0 -6 -8 -2 -17z"></path>
<path d="M3575 569 c-4 -6 2 -13 14 -16 26 -7 26 -11 2 -43 -17 -21 -22 -23
-46 -12 -31 14 -35 15 -35 3 0 -5 9 -13 21 -16 12 -4 38 -23 59 -42 l39 -34
39 35 c54 50 108 48 131 -5 13 -30 31 -39 31 -16 0 7 -5 18 -11 24 -7 7 -12
35 -13 64 -1 32 -6 54 -13 57 -7 2 -13 -4 -13 -13 0 -13 -6 -16 -22 -11 -13 3
-54 11 -92 16 -37 6 -72 13 -76 15 -5 3 -12 0 -15 -6z"></path>
<path d="M3990 560 c0 -12 40 -33 48 -25 4 4 -2 13 -12 21 -23 16 -36 18 -36
4z"></path>
<path d="M4550 545 c0 -14 5 -25 10 -25 6 0 10 11 10 25 0 14 -4 25 -10 25 -5
0 -10 -11 -10 -25z"></path>
<path d="M5370 550 c0 -5 5 -10 10 -10 6 0 10 5 10 10 0 6 -4 10 -10 10 -5 0
-10 -4 -10 -10z"></path>
<path d="M3840 516 c0 -12 40 -46 55 -46 13 0 3 24 -17 41 -28 22 -38 24 -38
5z"></path>
<path d="M4560 490 c0 -6 14 -88 30 -183 17 -94 35 -202 42 -239 6 -38 15 -68
19 -68 13 0 19 32 8 46 -6 7 -12 40 -14 73 -2 34 -8 69 -13 78 -5 10 -19 82
-32 161 -13 78 -27 142 -32 142 -4 0 -8 -5 -8 -10z"></path>
<path d="M4770 480 c0 -5 5 -10 10 -10 6 0 10 5 10 10 0 6 -4 10 -10 10 -5 0
-10 -4 -10 -10z"></path>
<path d="M5460 476 c0 -4 11 -24 25 -46 14 -22 24 -43 23 -47 -1 -5 10 -27 25
-51 15 -23 25 -47 22 -51 -2 -5 2 -14 10 -21 8 -7 15 -18 15 -25 0 -7 9 -24
21 -39 18 -23 18 -27 5 -32 -22 -8 -20 -24 3 -24 12 0 27 -15 41 -42 20 -38
20 -43 6 -54 -22 -16 -20 -27 4 -19 13 4 22 1 26 -9 3 -9 12 -16 20 -16 11 0
11 4 0 28 -8 15 -21 43 -30 62 -9 19 -20 42 -25 50 -4 8 -18 35 -30 60 -11 25
-25 52 -30 60 -5 8 -16 31 -25 50 -9 19 -20 42 -24 50 -5 8 -20 37 -33 64 -22
43 -49 71 -49 52z"></path>
<path d="M5410 460 c0 -5 5 -10 10 -10 6 0 10 5 10 10 0 6 -4 10 -10 10 -5 0
-10 -4 -10 -10z"></path>
<path d="M3920 446 c0 -14 28 -42 35 -34 2 2 2 14 -2 26 -6 24 -33 31 -33 8z"></path>
<path d="M4930 450 c0 -5 5 -10 10 -10 6 0 10 5 10 10 0 6 -4 10 -10 10 -5 0
-10 -4 -10 -10z"></path>
<path d="M4020 443 c0 -5 4 -15 10 -23 11 -18 25 -7 17 15 -6 15 -27 21 -27 8z"></path>
<path d="M3530 405 c0 -10 10 -15 30 -15 32 0 40 14 14 24 -27 10 -44 7 -44
-9z"></path>
<path d="M5190 410 c0 -5 5 -10 10 -10 6 0 10 5 10 10 0 6 -4 10 -10 10 -5 0
-10 -4 -10 -10z"></path>
<path d="M1560 399 c0 -5 5 -7 10 -4 6 3 10 8 10 11 0 2 -4 4 -10 4 -5 0 -10
-5 -10 -11z"></path>
<path d="M3209 372 c-50 -47 -68 -106 -61 -210 3 -57 8 -75 21 -79 50 -16 63
-27 59 -55 l-5 -28 99 0 99 0 -13 23 c-6 12 -11 34 -9 48 1 17 -4 29 -14 33
-34 13 -1 27 58 25 34 -1 67 -1 72 1 22 5 24 -2 10 -41 -17 -48 -19 -89 -5
-89 6 0 10 9 10 19 0 30 11 31 64 5 31 -15 68 -24 97 -24 53 0 48 -8 62 95 3
17 10 44 15 60 26 72 44 132 49 163 6 38 -1 39 -73 15 -57 -19 -91 -43 -114
-81 -9 -15 -34 -36 -56 -47 -21 -11 -48 -28 -58 -39 -16 -16 -29 -18 -85 -12
-36 3 -90 8 -118 10 -29 2 -59 9 -67 15 -8 7 -24 10 -35 6 -25 -8 -52 29 -46
62 3 13 8 35 11 50 3 15 26 47 52 70 26 24 41 43 34 43 -7 0 -31 -17 -53 -38z"></path>
<path d="M5110 400 c0 -5 5 -10 10 -10 6 0 10 5 10 10 0 6 -4 10 -10 10 -5 0
-10 -4 -10 -10z"></path>
<path d="M1610 390 c0 -5 5 -10 10 -10 18 0 112 -74 153 -119 47 -52 61 -47
19 6 -42 53 -69 76 -125 107 -53 29 -57 30 -57 16z"></path>
<path d="M3690 390 c0 -5 5 -10 10 -10 6 0 10 5 10 10 0 6 -4 10 -10 10 -5 0
-10 -4 -10 -10z"></path>
<path d="M4810 390 c0 -5 5 -10 10 -10 6 0 10 5 10 10 0 6 -4 10 -10 10 -5 0
-10 -4 -10 -10z"></path>
<path d="M5360 380 c0 -5 5 -10 10 -10 6 0 10 5 10 10 0 6 -4 10 -10 10 -5 0
-10 -4 -10 -10z"></path>
<path d="M3810 370 c0 -5 5 -10 10 -10 6 0 10 5 10 10 0 6 -4 10 -10 10 -5 0
-10 -4 -10 -10z"></path>
<path d="M3720 360 c0 -5 5 -10 10 -10 6 0 10 5 10 10 0 6 -4 10 -10 10 -5 0
-10 -4 -10 -10z"></path>
<path d="M3835 340 c-8 -13 4 -32 16 -25 12 8 12 35 0 35 -6 0 -13 -4 -16 -10z"></path>
<path d="M3980 310 c0 -11 7 -20 15 -20 8 0 15 9 15 20 0 11 -7 20 -15 20 -8
0 -15 -9 -15 -20z"></path>
<path d="M2103 249 c3 -33 8 -63 11 -66 13 -14 17 8 10 66 -9 81 -29 81 -21 0z"></path>
<path d="M2150 306 c0 -3 14 -45 30 -94 17 -50 30 -101 30 -115 0 -14 4 -28 9
-31 4 -3 11 -19 14 -36 4 -16 11 -30 16 -30 14 0 -44 234 -71 288 -10 19 -28
31 -28 18z"></path>
<path d="M2260 260 c0 -5 5 -10 10 -10 6 0 10 5 10 10 0 6 -4 10 -10 10 -5 0
-10 -4 -10 -10z"></path>
<path d="M3840 251 c11 -22 63 -30 75 -12 7 12 -2 17 -48 25 -36 7 -38 6 -27
-13z"></path>
<path d="M4970 260 c0 -5 7 -10 15 -10 8 0 15 5 15 10 0 6 -7 10 -15 10 -8 0
-15 -4 -15 -10z"></path>
<path d="M5510 260 c0 -5 7 -10 15 -10 8 0 15 5 15 10 0 6 -7 10 -15 10 -8 0
-15 -4 -15 -10z"></path>
<path d="M6875 240 c-10 -16 2 -27 36 -34 39 -7 65 9 48 30 -13 16 -75 19 -84
4z"></path>
<path d="M6130 221 c0 -5 7 -12 16 -15 14 -5 15 -4 4 9 -14 17 -20 19 -20 6z"></path>
<path d="M2740 175 c18 -19 38 -31 43 -28 10 6 -50 62 -67 63 -6 0 5 -16 24
-35z"></path>
<path d="M4910 200 c0 -5 5 -10 10 -10 6 0 10 5 10 10 0 6 -4 10 -10 10 -5 0
-10 -4 -10 -10z"></path>
<path d="M4820 190 c0 -5 5 -10 10 -10 6 0 10 5 10 10 0 6 -4 10 -10 10 -5 0
-10 -4 -10 -10z"></path>
<path d="M4720 180 c0 -5 5 -10 10 -10 6 0 10 5 10 10 0 6 -4 10 -10 10 -5 0
-10 -4 -10 -10z"></path>
<path d="M5380 170 c0 -5 9 -10 20 -10 11 0 20 5 20 10 0 6 -9 10 -20 10 -11
0 -20 -4 -20 -10z"></path>
<path d="M5050 160 c0 -5 7 -10 15 -10 8 0 15 5 15 10 0 6 -7 10 -15 10 -8 0
-15 -4 -15 -10z"></path>
<path d="M6870 160 c0 -5 9 -10 20 -10 11 0 20 5 20 10 0 6 -9 10 -20 10 -11
0 -20 -4 -20 -10z"></path>
<path d="M2465 103 c7 -40 12 -49 20 -42 8 9 -7 79 -17 79 -6 0 -7 -15 -3 -37z"></path>
<path d="M2640 105 c-17 -21 -6 -29 20 -15 12 6 33 9 46 6 26 -7 33 8 8 18
-28 11 -61 6 -74 -9z"></path>
<path d="M5280 100 c0 -5 5 -10 10 -10 6 0 10 5 10 10 0 6 -4 10 -10 10 -5 0
-10 -4 -10 -10z"></path>
<path d="M4910 90 c0 -5 5 -10 10 -10 6 0 10 5 10 10 0 6 -4 10 -10 10 -5 0
-10 -4 -10 -10z"></path>
<path d="M6911 76 c-9 -11 -6 -12 14 -8 14 2 28 8 31 13 9 15 -33 10 -45 -5z"></path>
<path d="M3110 68 c0 -22 37 -51 55 -45 20 8 19 27 -2 27 -9 0 -25 7 -35 17
-15 14 -18 14 -18 1z"></path>
<path d="M5470 60 c0 -5 5 -10 10 -10 6 0 10 5 10 10 0 6 -4 10 -10 10 -5 0
-10 -4 -10 -10z"></path>
<path d="M5090 50 c0 -5 5 -10 10 -10 6 0 10 5 10 10 0 6 -4 10 -10 10 -5 0
-10 -4 -10 -10z"></path>
<path d="M6855 50 c-3 -5 1 -10 9 -10 8 0 18 5 21 10 3 6 -1 10 -9 10 -8 0
-18 -4 -21 -10z"></path>
<path d="M4700 40 c0 -5 5 -10 10 -10 6 0 10 5 10 10 0 6 -4 10 -10 10 -5 0
-10 -4 -10 -10z"></path>
<path d="M2800 15 c-10 -13 -9 -15 9 -15 12 0 21 6 21 15 0 8 -4 15 -9 15 -5
0 -14 -7 -21 -15z"></path>
</g>
</svg>